<svg xmlns="http://www.w3.org/2000/svg" version="1.1" xmlns:xlink="http://www.w3.org/1999/xlink" xmlns:svgjs="http://svgjs.com/svgjs" width="1080" height="1090" preserveAspectRatio="none" viewBox="0 0 1080 1090"><g mask="url(&quot;#SvgjsMask1063&quot;)" fill="none"><rect width="1080" height="1090" x="0" y="0" fill="rgba(21, 21, 21, 1)"></rect><path d="M118.546,901.643C165.934,900.901,197.623,858.524,220.877,817.227C243.557,776.95,260.828,729.369,238.275,689.02C215.318,647.948,165.558,632.192,118.546,634.15C75.04,635.962,36.765,660.65,14.927,698.322C-6.982,736.117,-9.328,781.598,10.508,820.521C32.425,863.526,70.284,902.399,118.546,901.643" fill="rgba(37, 37, 37, 0.7)" class="triangle-float3"></path><path d="M561.994,1238.864C642.197,1239.305,706.704,1182.13,748.231,1113.514C791.623,1041.816,816.751,955.549,778.627,880.916C737.399,800.207,652.549,745.268,561.994,748.928C476.424,752.387,412.253,820.808,373.71,897.284C339.257,965.645,342.317,1044.443,379.271,1111.485C417.686,1181.176,482.418,1238.426,561.994,1238.864" fill="rgba(37, 37, 37, 0.7)" class="triangle-float3"></path><path d="M1160.855,504.474C1250.916,505.737,1329.008,446.046,1372.182,366.998C1413.549,291.258,1411.135,200.14,1367.852,125.479C1324.707,51.055,1246.846,0.026,1160.855,2.467C1078.48,4.805,1013.584,64.812,973.257,136.679C933.929,206.766,923.035,289.62,959.551,361.212C999.659,439.846,1072.592,503.236,1160.855,504.474" fill="rgba(37, 37, 37, 0.7)" class="triangle-float2"></path><path d="M34.786,349.568C92.276,348.656,138.968,305.055,163.613,253.107C185.034,207.955,171.721,157.376,146.408,114.285C121.507,71.895,83.789,37.762,34.786,33.804C-21.997,29.218,-83.515,44.665,-113.144,93.322C-143.694,143.491,-130.684,206.438,-101.317,257.309C-71.947,308.184,-23.951,350.499,34.786,349.568" fill="rgba(37, 37, 37, 0.7)" class="triangle-float3"></path><path d="M1009.769,483.687C1093.966,479.042,1164.187,429.275,1209.751,358.32C1260.212,279.74,1299.326,183.451,1255.534,100.968C1209.764,14.761,1107.284,-22.513,1009.769,-18.346C919.341,-14.482,844.671,43.048,797.877,120.524C749.126,201.24,720.016,301.267,767.537,382.713C814.787,463.695,916.152,488.851,1009.769,483.687" fill="rgba(37, 37, 37, 0.7)" class="triangle-float3"></path><path d="M893.351,1350.412C991.812,1353.436,1099.461,1340.549,1153.104,1257.929C1210.586,1169.396,1197.862,1054.037,1145.163,962.576C1092.379,870.969,999.075,806.46,893.351,807.123C788.667,807.779,696.402,873.43,646.946,965.698C600.13,1053.04,606.391,1159.329,659.839,1242.778C709.384,1320.134,801.532,1347.592,893.351,1350.412" fill="rgba(37, 37, 37, 0.7)" class="triangle-float2"></path><path d="M91.322,708.035C131.606,709.298,173.376,694.468,193.065,659.3C212.406,624.754,201.431,582.664,180.232,549.226C160.68,518.387,127.834,499.308,91.322,498.819C53.898,498.318,17.231,514.568,-1.811,546.789C-21.165,579.539,-18.969,620.309,0.057,653.25C19.077,686.181,53.312,706.843,91.322,708.035" fill="rgba(37, 37, 37, 0.7)" class="triangle-float1"></path><path d="M1092.732,455.441C1162.662,453.983,1215.675,401.982,1252.786,342.694C1293.068,278.341,1329.206,201.358,1293.82,134.188C1256.764,63.849,1172.221,37.381,1092.732,38.877C1016.098,40.319,941.463,74.46,904.336,141.516C868.212,206.76,882.307,285.672,920.683,349.618C957.816,411.494,1020.585,456.945,1092.732,455.441" fill="rgba(37, 37, 37, 0.7)" class="triangle-float2"></path><path d="M706.245,603.542C738.323,603.414,765.009,580.016,779.249,551.272C791.987,525.558,786.788,495.744,771.756,471.3C757.512,448.139,733.424,433.334,706.245,432.564C677.594,431.753,649.088,443.043,633.976,467.398C618.064,493.043,618.075,525.2,632.226,551.858C647.348,580.346,673.992,603.671,706.245,603.542" fill="rgba(37, 37, 37, 0.7)" class="triangle-float3"></path><path d="M552.86,1179.628C663.244,1182.717,774.217,1133.785,826.949,1036.762C877.801,943.198,850.77,829.194,791.349,740.824C738.85,662.749,646.917,631.39,552.86,629.141C453.695,626.77,346.819,645.115,293.768,728.929C237.709,817.494,251.874,931.259,304.113,1022.13C356.536,1113.321,447.716,1176.686,552.86,1179.628" fill="rgba(37, 37, 37, 0.7)" class="triangle-float3"></path></g><defs><mask id="SvgjsMask1063"><rect width="1080" height="1090" fill="#ffffff"></rect></mask><style>
            @keyframes float1 {
                0%{transform: translate(0, 0)}
                50%{transform: translate(-10px, 0)}
                100%{transform: translate(0, 0)}
            }

            .triangle-float1 {
                animation: float1 5s infinite;
            }

            @keyframes float2 {
                0%{transform: translate(0, 0)}
                50%{transform: translate(-5px, -5px)}
                100%{transform: translate(0, 0)}
            }

            .triangle-float2 {
                animation: float2 4s infinite;
            }

            @keyframes float3 {
                0%{transform: translate(0, 0)}
                50%{transform: translate(0, -10px)}
                100%{transform: translate(0, 0)}
            }

            .triangle-float3 {
                animation: float3 6s infinite;
            }
        </style></defs></svg>