<svg xmlns="http://www.w3.org/2000/svg" version="1.1" xmlns:xlink="http://www.w3.org/1999/xlink" xmlns:svgjs="http://svgjs.com/svgjs" width="1920" height="1080" preserveAspectRatio="none" viewBox="0 0 1920 1080"><g mask="url(&quot;#SvgjsMask1037&quot;)" fill="none"><rect width="1920" height="1080" x="0" y="0" fill="rgba(21, 21, 21, 1)"></rect><path d="M325.093,972.543C402.571,972.88,459.185,909.129,498.576,842.411C538.845,774.206,566.461,694.164,531.377,623.153C492.632,544.731,412.563,490.801,325.093,491.278C238.344,491.751,160.761,547.442,122.668,625.381C88.495,695.299,115.006,773.685,154.206,840.913C193.024,907.486,248.03,972.208,325.093,972.543" fill="rgba(37, 37, 37, 0.7)" class="triangle-float2"></path><path d="M113.949,490.716C145.884,490.52,181.188,484.339,196.439,456.28C211.27,428.993,195.985,397.094,178.945,371.129C163.929,348.247,141.317,330.77,113.949,330.583C86.273,330.393,62.716,347.18,47.391,370.227C29.814,396.662,14.339,429.515,29.689,457.302C45.348,485.649,81.566,490.914,113.949,490.716" fill="rgba(37, 37, 37, 0.7)" class="triangle-float1"></path><path d="M1185.656,37.227C1219.971,37.299,1248.044,13.04,1265.124,-16.722C1282.115,-46.329,1287.841,-82.189,1271.331,-112.067C1254.322,-142.846,1220.8,-161.766,1185.656,-160.528C1152.39,-159.356,1125.877,-135.544,1109.838,-106.376C1094.453,-78.396,1091.855,-45.29,1106.763,-17.053C1122.737,13.202,1151.443,37.155,1185.656,37.227" fill="rgba(37, 37, 37, 0.7)" class="triangle-float1"></path><path d="M1352.921,461.699C1449.732,459.083,1542.933,426.411,1598.617,347.174C1664.776,253.032,1713.971,129.733,1656.103,30.279C1598.433,-68.836,1467.56,-77.837,1352.921,-75.09C1244.536,-72.493,1130.937,-47.972,1073.902,44.229C1014.32,140.547,1020.159,266.944,1083.093,361.106C1140.261,446.641,1250.078,464.478,1352.921,461.699" fill="rgba(37, 37, 37, 0.7)" class="triangle-float3"></path><path d="M999.571,806.225C1034.339,807.2,1062.723,780.724,1079.062,750.018C1094.363,721.262,1092.37,688.076,1077.99,658.848C1061.369,625.065,1037.21,587.55,999.571,588.447C962.646,589.326,942.758,628.861,927.365,662.436C914.958,689.498,914.085,719.161,927.445,745.766C942.534,775.814,965.96,805.282,999.571,806.225" fill="rgba(37, 37, 37, 0.7)" class="triangle-float3"></path><path d="M465.976,1362.282C553.405,1365.541,633.604,1310.356,673.707,1232.599C710.896,1160.491,691.51,1076.111,649.305,1006.82C609.059,940.744,543.309,889.227,465.976,891.549C391.837,893.775,336.965,952.542,300.771,1017.284C265.64,1080.124,252.352,1153.118,283.445,1218.05C319.341,1293.013,382.92,1359.186,465.976,1362.282" fill="rgba(37, 37, 37, 0.7)" class="triangle-float3"></path><path d="M1765.99,1026.103C1872.767,1029.346,1986.954,1001.708,2041.471,909.84C2096.849,816.521,2070.562,700.224,2014.516,607.304C1960.548,517.83,1870.48,453.038,1765.99,453.115C1661.624,453.192,1569.264,516.708,1518.1,607.672C1467.961,696.814,1465.911,805.952,1518.04,893.945C1569.204,980.308,1665.655,1023.056,1765.99,1026.103" fill="rgba(37, 37, 37, 0.7)" class="triangle-float3"></path><path d="M1079.495,1006.046C1111.888,1005.87,1131.263,974.104,1147.497,946.073C1163.787,917.946,1180.81,885.813,1165.839,856.962C1150.044,826.522,1113.788,814.715,1079.495,815.021C1045.798,815.322,1011.463,828.653,995.781,858.48C980.9,886.784,994.421,919.005,1010.2,946.819C1026.269,975.145,1046.928,1006.223,1079.495,1006.046" fill="rgba(37, 37, 37, 0.7)" class="triangle-float2"></path><path d="M966.95,1034.662C1002.342,1034.036,1036.462,1017.291,1053.364,986.189C1069.611,956.291,1062.921,920.154,1044.841,891.328C1027.959,864.412,998.72,848.059,966.95,848.413C935.792,848.76,909.023,866.926,892.006,893.029C872.925,922.297,858.731,958.463,875.071,989.344C892.189,1021.695,930.355,1035.31,966.95,1034.662" fill="rgba(37, 37, 37, 0.7)" class="triangle-float1"></path></g><defs><mask id="SvgjsMask1037"><rect width="1920" height="1080" fill="#ffffff"></rect></mask><style>
            @keyframes float1 {
                0%{transform: translate(0, 0)}
                50%{transform: translate(-10px, 0)}
                100%{transform: translate(0, 0)}
            }

            .triangle-float1 {
                animation: float1 5s infinite;
            }

            @keyframes float2 {
                0%{transform: translate(0, 0)}
                50%{transform: translate(-5px, -5px)}
                100%{transform: translate(0, 0)}
            }

            .triangle-float2 {
                animation: float2 4s infinite;
            }

            @keyframes float3 {
                0%{transform: translate(0, 0)}
                50%{transform: translate(0, -10px)}
                100%{transform: translate(0, 0)}
            }

            .triangle-float3 {
                animation: float3 6s infinite;
            }
        </style></defs></svg>