<svg id="visual" viewBox="0 0 960 540" width="960" height="540" xmlns="http://www.w3.org/2000/svg" xmlns:xlink="http://www.w3.org/1999/xlink" version="1.1"><rect x="0" y="0" width="960" height="540" fill="#151515"></rect><path d="M0 424L120 445L240 423L360 441L480 354L600 350L720 411L840 343L960 411L960 541L840 541L720 541L600 541L480 541L360 541L240 541L120 541L0 541Z" fill="#1d1d1d"></path><path d="M0 444L120 404L240 448L360 430L480 424L600 381L720 453L840 383L960 372L960 541L840 541L720 541L600 541L480 541L360 541L240 541L120 541L0 541Z" fill="#222222"></path><path d="M0 475L120 438L240 481L360 466L480 432L600 453L720 456L840 437L960 465L960 541L840 541L720 541L600 541L480 541L360 541L240 541L120 541L0 541Z" fill="#303030"></path><path d="M0 463L120 482L240 503L360 485L480 493L600 459L720 474L840 483L960 467L960 541L840 541L720 541L600 541L480 541L360 541L240 541L120 541L0 541Z" fill="#484848"></path></svg>