<svg id="visual" viewBox="0 0 540 960" width="540" height="960" xmlns="http://www.w3.org/2000/svg" xmlns:xlink="http://www.w3.org/1999/xlink" version="1.1"><rect x="0" y="0" width="540" height="960" fill="#151515"></rect><path d="M0 755L68 792L135 753L203 785L270 630L338 623L405 732L473 610L540 732L540 961L473 961L405 961L338 961L270 961L203 961L135 961L68 961L0 961Z" fill="#1d1d1d"></path><path d="M0 790L68 718L135 797L203 765L270 754L338 677L405 806L473 682L540 662L540 961L473 961L405 961L338 961L270 961L203 961L135 961L68 961L0 961Z" fill="#222222"></path><path d="M0 845L68 780L135 855L203 830L270 769L338 806L405 812L473 778L540 828L540 961L473 961L405 961L338 961L270 961L203 961L135 961L68 961L0 961Z" fill="#303030"></path><path d="M0 824L68 857L135 894L203 863L270 877L338 816L405 843L473 860L540 831L540 961L473 961L405 961L338 961L270 961L203 961L135 961L68 961L0 961Z" fill="#484848"></path></svg>